# xmcd
#
# Track frame offsets: 
#        150
#        12407
#        24356
#        37579
#        51241
#        64739
#        78725
#        91707
#        105303
#        116108
#        128947
#        141672
#        154664
#        166689
#        179598
#        193544
#        206876
#        218566
#        229329
#        243610
#
# Disc length: 3417 seconds
#
# Revision: 2
# Processed by: cddbd v1.5.2PL0 Copyright (c) Steve Scherf et al.
# Submitted via: ExactAudioCopyFreeDBPlugin 1.0
#
DISCID=140d5714
DTITLE=Verschiedene - Milestones Of Legends - Delta Blues - CD05 - Buk
DTITLE=ka White
DYEAR=2018
DGENRE=Blues
TTITLE0=Bukka White - District Attorney Blues
TTITLE1=Bukka White - Bukka's Jitterbug Swing
TTITLE2=Bukka White - Special Streamline
TTITLE3=Bukka White - Shake 'Em on Down
TTITLE4=Bukka White - When Can I Change My Clothes?
TTITLE5=Bukka White - Promise True and Grand
TTITLE6=Bukka White - Po' Boy
TTITLE7=Bukka White - The New Frisco Train
TTITLE8=Bukka White - Sic 'Em Dogs On
TTITLE9=Bukka White - High Fever Blues
TTITLE10=Bukka White - Pinebluff, Arkansas
TTITLE11=Bukka White - Strange Place Blues
TTITLE12=Bukka White - Parchman Farm Blues
TTITLE13=Bukka White - Sleepy Man Blues
TTITLE14=Bukka White - I Am in the Heavenly Way
TTITLE15=Bukka White - Black Train Blues
TTITLE16=Bukka White - Aberdeen, Mississippi Blues
TTITLE17=Bukka White - Good Gin Blues
TTITLE18=Bukka White - The Panama Limited
TTITLE19=Bukka White - Fixin' to Die
EXTD=
EXTT0=
EXTT1=
EXTT2=
EXTT3=
EXTT4=
EXTT5=
EXTT6=
EXTT7=
EXTT8=
EXTT9=
EXTT10=
EXTT11=
EXTT12=
EXTT13=
EXTT14=
EXTT15=
EXTT16=
EXTT17=
EXTT18=
EXTT19=
PLAYORDER=
